<svg xmlns="http://www.w3.org/2000/svg" viewBox="0 0 320 180" width="320" height="180" role="img" aria-hidden="true"><title>drift divergence explainer</title><g stroke="var(--ag-muted, #8993a4)" stroke-width="1" opacity="0.18"><path d="M0 45h320M0 90h320M0 135h320M80 0v180M160 0v180M240 0v180"/></g><path d="M16 90h100" stroke="var(--ag-control, #42c7e8)" stroke-width="2.5" stroke-linecap="round"/><circle cx="116" cy="90" r="5" fill="none" stroke="var(--ag-control, #42c7e8)" stroke-width="2"/><path d="M116 90c40 0 34-44 96-44" fill="none" stroke="var(--ag-authority, #7759e8)" stroke-width="2.5" stroke-linecap="round"/><path d="M116 90c40 0 34 44 96 44" fill="none" stroke="var(--ag-decision, #f0a64a)" stroke-width="2.5" stroke-dasharray="8 5" stroke-linecap="round"/><rect x="212" y="38" width="16" height="16" rx="2" fill="none" stroke="var(--ag-authority, #7759e8)" stroke-width="2"/><path d="M220 128l12 12m0-12l-12 12" stroke="var(--ag-danger, #ff6b7a)" stroke-width="2.5" stroke-linecap="round"/><circle cx="252" cy="134" r="4" fill="none" stroke="var(--ag-muted, #8993a4)" stroke-width="1.5" stroke-dasharray="2 2"/><path d="M252 46v60" stroke="var(--ag-muted, #8993a4)" stroke-width="1" stroke-dasharray="2 4" opacity="0.6"/></svg>
